<!-- icon666.com - MILLIONS vector ICONS FREE --><svg version="1.1" id="Layer_1" xmlns="http://www.w3.org/2000/svg" xmlns:xlink="http://www.w3.org/1999/xlink" x="0px" y="0px" viewBox="0 0 511.999 511.999" style="enable-background:new 0 0 511.999 511.999;" xml:space="preserve" fill="#ffffff"><g><g><path d="M35.752,368.752c-2.487-2.821-4.786-5.846-6.831-8.992c-2.261-3.473-6.907-4.456-10.38-2.198 c-3.473,2.26-4.457,6.907-2.198,10.38c2.443,3.755,5.187,7.365,8.154,10.733c1.483,1.683,6.51,4.381,10.59,0.666 C38.15,376.552,38.492,371.86,35.752,368.752z"></path></g></g><g><g><path d="M439.13,227.643c1.786-4.414,2.95-8.516,3.668-12.261c10.941-5.366,20.269-13.916,26.515-24.806l6.581-11.476 c3.483-6.073,8.124-11.236,13.792-15.345l5.869-4.256c4.83-3.502,7.115-9.314,5.966-15.167s-5.464-10.367-11.258-11.782 l-25.195-6.152c-15.673-3.825-32.32,0.182-44.534,10.722l-10.075,8.695c-12.337,10.648-27.376,17.559-43.492,19.986 c-4.097,0.616-6.918,4.44-6.301,8.536c0.617,4.098,4.443,6.925,8.536,6.301c17.477-2.633,33.87-9.766,47.689-20.692 c-5.283,25.346-26.979,39.272-46.405,46.778h-42.731l18.845-13.219c6.44-4.518,9.259-12.339,7.18-19.927 c-2.079-7.588-8.491-12.88-16.336-13.484l-109.952-8.458c-5.588-0.427-11.106,0.485-16.155,2.615l-59.379-8.313l3.204-11.615 c1.497-5.431,0.149-11.183-3.697-15.302c-6.589-7.056-15.65-4.809-16.037-4.733c-3.113-7.163-10.25-12.19-18.545-12.19 c-11.148,0-20.217,9.069-20.217,20.218v5.511c-30.299,15.775-53.133,41.923-66.156,75.834c-3.52,9.164-1.746,19.09,3.813,26.359 c-15.002,9.082-25.268,22.924-33.25,39.076c-4.079,8.257,4.751,18.746,5.251,19.125c-3.211,9.477-4.837,19.384-4.837,29.536 c0,10.321,1.696,20.458,5.04,30.127c1.073,3.105,5.805,5.994,9.542,4.639c3.895-1.413,5.993-5.627,4.639-9.542 c-2.797-8.089-4.215-16.575-4.215-25.224c0-9.387,1.671-18.511,4.939-27.179c0.503-0.177,21.212-9.782,21.212-9.782 c-7.554,10.392-12.025,23.161-12.025,36.961c0,34.747,28.268,63.015,63.015,63.015c16.419,0,31.974-6.302,43.798-17.746 c4.782-4.628,8.737-9.894,11.796-15.607c1.56,5.291,4.484,9.91,8.33,13.522c-14.278,21.072-38.294,33.957-63.924,33.957 c-15.895,0-31.156-4.795-44.135-13.864c-3.396-2.374-8.075-1.544-10.447,1.853c-2.374,3.396-1.544,8.073,1.853,10.447 c15.511,10.841,33.744,16.57,52.73,16.57c31.064,0,60.136-15.846,77.089-41.671c2.453,0.639,5.012,0.983,7.633,0.983h114.741 c8.046,0,15.742-2.334,22.291-6.538h24.009c16.31,29.178,46.949,47.226,80.458,47.226c50.809,0,92.145-41.336,92.145-92.146 C512.002,273.992,481.19,236.584,439.13,227.643z M413.108,197.122c13.671-14.046,20.384-31.111,19.992-50.776 c8.203-5.754,18.577-7.773,28.41-5.371l25.254,6.158c0.029,0.038,0.05,0.145-0.016,0.219l-5.869,4.255 c-7.397,5.363-13.453,12.101-18,20.028l-6.581,11.476c-8.354,14.565-23.972,23.612-40.761,23.612h-13.6 C405.803,203.911,409.591,200.735,413.108,197.122z M415.537,221.728c3.407,0,6.778-0.285,10.083-0.833 c-4.63,12.044-15.726,28.889-41.595,48.132c-7.482-18.206-25.398-31.063-46.27-31.063c-14.318,0-27.956,6.226-37.394,16.839 l-11.623-7.863c-2.146-1.45-3.388-3.768-3.409-6.357c-0.022-2.59,1.181-4.928,3.301-6.414c-0.001-0.001,17.985-12.44,18.101-12.44 H415.537z M392.418,340.645v-2.669h4.76c5.734,6.414,14.011,10.179,22.68,10.179c6.089,0,11.968-1.797,17-5.196 c8.389-5.666,13.396-15.087,13.396-25.2c0-2.421-0.289-4.807-0.85-7.132c2.617-4.702,2.92-10.329,0.657-15.459 c-2.836-6.429-8.962-10.422-15.988-10.422h-46.185c6.247-4.409,11.82-8.745,16.785-12.991l0.002,0.009 c4.666-1.479,10.239-2.014,15.182-2.014c26.473,0,48.009,21.536,48.009,48.009c0,26.473-21.536,48.01-48.009,48.01 c-11.732,0-23.016-4.341-31.75-12.051C390.813,350.058,392.418,345.535,392.418,340.645z M382.639,309.988 c1.593-3.232,2.841-6.661,3.708-10.238h47.724c1.4,0,2.018,0.923,2.26,1.474c0.243,0.55,0.509,1.628-0.435,2.661l-6.684,7.319 c-6.827,7.479-16.552,11.768-26.678,11.768h-10.772C390.44,317.633,387.17,313.016,382.639,309.988z M343.441,283.944 l-30.499-20.632c6.524-6.544,15.462-10.343,24.813-10.343c19.299,0,35.001,15.701,35.001,35.001 c0,16.214-11.085,29.885-26.073,33.842l3.273-4.939C357.155,306.015,354.232,291.243,343.441,283.944z M145.162,170.579 l2.774-10.055l45.678,6.373l-15.667,12.771c-1.194,0.974-2.756,1.412-4.282,1.202l-23.886-3.284 c-2.18-0.3-3.377-1.669-3.897-2.457C145.361,174.34,144.576,172.7,145.162,170.579z M137.101,129.255 c0.75-0.154,1.5-0.308,2.24-0.446c0.159-0.029,0.633-0.117,1.076,0.364c0.308,0.335,0.402,0.726,0.283,1.161l-3.599,13.044 V129.255z M111.672,122.316c0-2.825,2.387-5.213,5.212-5.213s5.212,2.388,5.212,5.213v26.155c0,2.825-2.387,5.213-5.212,5.213 s-5.212-2.388-5.212-5.213V122.316z M96.667,145.029c0,0-0.139,9.117,2.671,13.445c-10.946,9.911-24.037,12.722-33.516,13.253 C74.511,161.088,84.81,152.171,96.667,145.029z M16.595,276.377c-0.226,0.104-0.753,0.349-1.354-0.226 c-0.604-0.577-0.374-1.137-0.287-1.348c6.578-16.001,17.739-27.826,33.167-35.203l25.901,10.031L16.595,276.377z M141.615,319.463 c-0.909,25.966-21.983,46.306-47.98,46.306c-26.473,0-48.01-21.537-48.01-48.01c0-23.9,17.556-43.771,40.449-47.409l-1.751,18.475 c-12.391,3.99-21.084,15.67-21.084,28.933c0,16.761,13.636,30.397,30.396,30.397c14.014,0,26.263-9.702,29.539-23.222 l18.371-5.792l0.074,0.273C141.618,319.43,141.615,319.446,141.615,319.463z M99.177,331.662c0.37,0,0.74-0.018,1.111-0.042 c-2.031,0.978-4.29,1.53-6.654,1.53c-8.486,0-15.391-6.904-15.391-15.392c0-4.106,1.644-7.913,4.353-10.714l-0.563,5.942 c-0.004,0.041-0.007,0.082-0.011,0.123c-0.444,5.711,1.967,11.249,6.45,14.813C91.562,330.376,95.339,331.663,99.177,331.662z M96.98,314.318l5.099-53.817l9.325,3.611c0.005,0.002,0.01,0.003,0.014,0.005c10.658,4.133,18.801,13.186,21.788,24.22 l4.414,16.307l-37.775,11.909c-0.975,0.305-1.694-0.105-2.037-0.378C97.472,315.907,96.918,315.31,96.98,314.318z M315.006,342.447c-4.883,7.367-13.072,11.764-21.908,11.764H178.357c-6.932,0-13.038-4.673-14.85-11.364l-15.817-58.431 c-1.435-5.299-3.726-10.263-6.694-14.755l176.51,44.237c4.933,0.801,8.248-2.048,9.102-5.454c1.007-4.019-1.435-8.095-5.454-9.102 l-218.841-54.844l-50.895-19.713c-6.214-2.406-9.309-9.468-6.898-15.743c3.092-8.052,6.733-15.553,10.906-22.502 c1.815,0.152,31.435,3.45,55.827-18.666c8.119,1.61,17.05-1.844,20.756-6.031l-1.309,4.746c-1.577,5.719-0.61,11.84,2.653,16.795 c3.264,4.954,8.506,8.259,14.384,9.066l23.886,3.284c5.631,0.779,11.397-0.841,15.806-4.436l24.928-20.32 c3.944-3.217,8.902-4.772,13.989-4.383l109.952,8.458c2.074,0.16,2.779,1.628,3.015,2.489c0.235,0.86,0.377,2.482-1.324,3.677 l-57.971,40.663c-6.131,4.3-9.753,11.339-9.69,18.826c0.064,7.488,3.805,14.463,10.007,18.657l54.702,37.004 c4.001,2.707,5.086,8.186,2.416,12.212L315.006,342.447z M329.544,347.673l6.466-9.755c0.582,0.02,25.274-1.21,38.033-15.595 c2.03,1.263,3.369,3.517,3.369,5.97v12.352c0,3.875-3.152,7.028-7.027,7.028H329.544z M419.857,394.899 c-25.134,0-48.344-12.128-62.725-32.221h13.253c1.645,0,3.245-0.187,4.788-0.53c11.805,11.875,27.897,18.625,44.684,18.625 c34.746,0,63.014-28.268,63.014-63.015c0-34.06-27.168-61.877-60.969-62.962c3.963-4.578,7.258-9,9.965-13.23 c37.303,5.822,65.131,38.133,65.131,76.194C496.997,360.293,462.391,394.899,419.857,394.899z"></path></g></g></svg>