<!-- icon666.com - MILLIONS vector ICONS FREE --><svg version="1.1" id="Capa_1" xmlns="http://www.w3.org/2000/svg" xmlns:xlink="http://www.w3.org/1999/xlink" x="0px" y="0px" viewBox="0 0 496 496" style="enable-background:new 0 0 496 496;" xml:space="preserve" fill="#ffffff"><g><g><g><path d="M336,416v16h144v24c0,13.232-10.768,24-24,24H40c-13.232,0-24-10.768-24-24v-24h144v-16H0v40c0,22.056,17.944,40,40,40 h416c22.056,0,40-17.944,40-40v-40H336z"></path><path d="M176,440c0,13.232,10.768,24,24,24h96c13.232,0,24-10.768,24-24v-24H176V440z M192,432h112v8c0,4.408-3.584,8-8,8h-96 c-4.416,0-8-3.592-8-8V432z"></path><path d="M32,144c0-13.232,10.768-24,24-24h16v-16H56c-22.056,0-40,17.944-40,40v256h16V144z"></path><path d="M464,144v256h16V144c0-22.056-17.944-40-40-40h-15.992v16H440C453.232,120,464,130.768,464,144z"></path><path d="M48,152v248h16V152h8v-16h-8C55.176,136,48,143.176,48,152z"></path><path d="M432,400h16V152c0-8.824-7.176-16-16-16h-8v16h8V400z"></path><polygon points="120,16 392,16 392,400 408,400 408,0 104,0 104,56 120,56 "></polygon><path d="M136,400c26.472,0,48-21.528,48-48V117.704l-48-76.8l-48,76.8V352C88,378.472,109.528,400,136,400z M168,288h-24V128h24 V288z M136,71.096L161.568,112h-51.136L136,71.096z M104,128h24v160h-24V128z M104,304h64v16h-64V304z M104,336h64v16 c0,17.648-14.352,32-32,32s-32-14.352-32-32V336z"></path><path d="M280,208c44.112,0,80-35.888,80-80s-35.888-80-80-80s-80,35.888-80,80S235.888,208,280,208z M280,64 c35.288,0,64,28.712,64,64c0,35.288-28.712,64-64,64c-35.288,0-64-28.712-64-64C216,92.712,244.712,64,280,64z"></path><path d="M288,152h-16c-4.416,0-8-3.592-8-8h-16c0,13.232,10.768,24,24,24v8h16v-8c13.232,0,24-10.768,24-24s-10.768-24-24-24h-16 c-4.416,0-8-3.592-8-8s3.584-8,8-8h16c4.416,0,8,3.592,8,8h16c0-13.232-10.768-24-24-24v-8h-16v8c-13.232,0-24,10.768-24,24 s10.768,24,24,24h16c4.416,0,8,3.592,8,8S292.416,152,288,152z"></path><rect x="200" y="224" width="16" height="16"></rect><rect x="232" y="224" width="144" height="16"></rect><rect x="360" y="320" width="16" height="16"></rect><rect x="200" y="320" width="144" height="16"></rect><rect x="200" y="256" width="176" height="16"></rect><rect x="200" y="352" width="176" height="16"></rect><rect x="200" y="288" width="80" height="16"></rect><rect x="296" y="288" width="80" height="16"></rect></g></g></g></svg>