<svg width="50.000000" height="50.000000" viewBox="0 0 50 50" fill="none" xmlns="http://www.w3.org/2000/svg" xmlns:xlink="http://www.w3.org/1999/xlink">
	<desc>
			Created with Pixso.
	</desc>
	<defs/>
	<path id="Vector 1" d="M0 25C0 11.19 11.19 0 25 0C38.8 0 50 11.19 50 25C50 38.8 38.8 50 25 50C11.19 50 0 38.8 0 25Z" fill="#FF0000" fill-opacity="1.000000" fill-rule="evenodd"/>
	<path id="Vector 1" d="M37.99 32.53C37.99 33.19 37.7 34.49 37.42 35.1C37.03 36 36 36.59 35.17 37.05C34.08 37.64 32.97 38 31.73 38C30.02 38 28.47 37.29 26.9 36.72C25.77 36.31 24.68 35.82 23.66 35.19C20.53 33.25 16.74 29.46 14.8 26.32C14.17 25.31 13.68 24.22 13.27 23.09C12.7 21.52 12 19.97 12 18.25C12 17.02 12.35 15.91 12.94 14.82C13.4 13.99 13.99 12.95 14.89 12.57C15.5 12.29 16.8 12 17.46 12C17.59 12 17.72 12 17.85 12.05C18.24 12.18 18.64 13.08 18.83 13.45C19.42 14.51 19.99 15.58 20.6 16.61C20.89 17.09 21.45 17.68 21.45 18.26C21.45 19.38 18.11 21.03 18.11 22.02C18.11 22.52 18.57 23.17 18.83 23.61C20.69 26.97 23.02 29.3 26.38 31.17C26.82 31.42 27.47 31.88 27.97 31.88C28.97 31.88 30.61 28.54 31.73 28.54C32.31 28.54 32.9 29.1 33.38 29.39C34.41 30 35.48 30.57 36.54 31.17C36.91 31.35 37.81 31.76 37.94 32.14C38 32.27 38 32.4 38 32.53L37.99 32.53Z" fill="#FFFFFF" fill-opacity="1.000000" fill-rule="nonzero"/>
</svg>
