<!-- icon666.com - MILLIONS vector ICONS FREE --><svg viewBox="0 0 496 496" xmlns="http://www.w3.org/2000/svg"><path d="m360 463.761719c13.230469 0 24-10.769531 24-24s-10.769531-24-24-24-24 10.769531-24 24 10.769531 24 24 24zm0-32c4.414062 0 8 3.59375 8 8 0 4.410156-3.585938 8-8 8s-8-3.589844-8-8c0-4.40625 3.585938-8 8-8zm0 0"></path><path d="m424 239.761719c-2.128906 0-4.160156.839843-5.65625 2.34375l-51.917969 51.921875-34.746093-17.371094 26.976562-40.460938c1.734375-2.609374 1.800781-5.984374.152344-8.648437-1.648438-2.664063-4.640625-4.152344-7.800782-3.730469l-55.007812 6.882813v-38.9375c0-3.230469-1.945312-6.152344-4.9375-7.390625-2.992188-1.234375-6.429688-.554688-8.71875 1.734375l-34.34375 34.34375-34.34375-34.34375c-2.28125-2.289063-5.71875-2.96875-8.71875-1.734375-2.992188 1.238281-4.9375 4.160156-4.9375 7.390625v38.9375l-55.007812-6.875c-3.152344-.414063-6.160157 1.074219-7.800782 3.730469-1.648437 2.664062-1.582031 6.039062.152344 8.648437l26.976562 40.460937-34.746093 17.371094-51.917969-51.921875c-1.496094-1.511719-3.527344-2.351562-5.65625-2.351562h-72v16h68.6875l93.65625 93.65625c1.496094 1.503906 3.527344 2.34375 5.65625 2.34375h24v40c0 4.417969 3.574219 8 8 8h24v32h-32.640625c-3.902344-27.097657-27.207031-48-55.359375-48s-51.457031 20.902343-55.359375 48h-80.640625v16h80.640625c3.902344 27.097656 27.207031 48 55.359375 48s51.457031-20.902344 55.359375-48h40.640625c4.425781 0 8-3.582031 8-8v-80c0-13.230469-10.769531-24-24-24h-12.6875l18.34375-18.34375c1.886719-1.886719 2.710938-4.601563 2.183594-7.222657l-4.457032-22.265624 24.496094 14.695312c2.527344 1.519531 5.707032 1.519531 8.234375 0l24.496094-14.695312-4.457031 22.265624c-.519532 2.621094.296875 5.335938 2.183594 7.222657l18.351562 18.34375h-12.6875c-13.230469 0-24 10.769531-24 24v80c0 4.417969 3.574219 8 8 8h40.640625c3.902344 27.097656 27.207031 48 55.359375 48s51.457031-20.902344 55.359375-48h80.640625v-16h-80.640625c-3.902344-27.097657-27.207031-48-55.359375-48s-51.457031 20.902343-55.359375 48h-32.640625v-32h24c4.425781 0 8-3.582031 8-8v-40h24c2.128906 0 4.160156-.839844 5.65625-2.34375l93.65625-93.65625h68.6875v-16zm-288 240c-22.054688 0-40-17.945313-40-40 0-22.054688 17.945312-40 40-40s40 17.945312 40 40c0 22.054687-17.945312 40-40 40zm224-80c22.054688 0 40 17.945312 40 40 0 22.054687-17.945312 40-40 40s-40-17.945313-40-40c0-22.054688 17.945312-40 40-40zm-136-40v24h-16v-32h8c4.414062 0 8 3.59375 8 8zm64 24h-16v-24c0-4.40625 3.585938-8 8-8h8zm36.6875-48h-9.375l-26.625-26.632813 7.160156-35.800781c.625-3.101563-.648437-6.285156-3.230468-8.109375-2.585938-1.832031-6.007813-1.953125-8.730469-.320312l-35.886719 21.535156-35.878906-21.527344c-2.730469-1.625-6.144532-1.503906-8.730469.320312-2.582031 1.824219-3.855469 5-3.230469 8.113282l7.160156 35.796875-26.632812 26.625h-9.375l-29.808594-29.808594 38.070313-19.039063c2.058593-1.023437 3.5625-2.886718 4.160156-5.105468.585937-2.214844.195313-4.582032-1.078125-6.496094l-22.304688-33.453125 46.65625 5.832031c2.28125.3125 4.566407-.417968 6.289063-1.945312 1.71875-1.503906 2.703125-3.6875 2.703125-5.984375v-28.6875l26.34375 26.34375c3.128906 3.128906 8.183594 3.128906 11.3125 0l26.34375-26.34375v28.6875c0 2.296875.984375 4.480469 2.703125 6 1.722656 1.519531 4.023437 2.25 6.289063 1.945312l46.65625-5.832031-22.304688 33.453125c-1.273438 1.914063-1.664062 4.273437-1.078125 6.496094.589844 2.21875 2.101563 4.074219 4.160156 5.105469l38.070313 19.039062zm0 0"></path><path d="m434.34375 274.105469-40 40c-1.503906 1.496093-2.34375 3.535156-2.34375 5.65625v24c0 4.417969 3.574219 8 8 8h96v-16h-88v-12.6875l35.3125-35.3125h52.6875v-16h-56c-2.128906 0-4.160156.839843-5.65625 2.34375zm0 0"></path><path d="m464 367.761719h32v16h-32zm0 0"></path><path d="m136 415.761719c-13.230469 0-24 10.769531-24 24s10.769531 24 24 24 24-10.769531 24-24-10.769531-24-24-24zm0 32c-4.414062 0-8-3.589844-8-8 0-4.40625 3.585938-8 8-8s8 3.59375 8 8c0 4.410156-3.585938 8-8 8zm0 0"></path><path d="m104 343.761719v-24c0-2.121094-.839844-4.160157-2.34375-5.65625l-40-40c-1.496094-1.503907-3.527344-2.34375-5.65625-2.34375h-56v16h52.6875l35.3125 35.3125v12.6875h-88v16h96c4.425781 0 8-3.582031 8-8zm0 0"></path><path d="m0 367.761719h32v16h-32zm0 0"></path><path d="m144 175.761719h208c2.9375 0 5.632812-1.609375 7.03125-4.183594 1.402344-2.574219 1.273438-5.710937-.320312-8.175781l-104-160c-2.949219-4.535156-10.472657-4.535156-13.421876 0l-104 160c-1.59375 2.464844-1.722656 5.601562-.320312 8.175781 1.398438 2.574219 4.09375 4.183594 7.03125 4.183594zm104-153.320313 89.257812 137.320313h-178.515624zm0 0"></path><path d="m240 127.761719h16v16h-16zm0 0"></path><path d="m240 63.761719h16v48h-16zm0 0"></path></svg>