<!-- icon666.com - MILLIONS vector ICONS FREE --><svg id="Layer_1" enable-background="new 0 0 64 64" viewBox="0 0 64 64" xmlns="http://www.w3.org/2000/svg" fill="#ffffff"><g><path d="m18.1 42.2-5.4-1.2c-1.5-.3-2.8.8-2.8 2.3v2.3c0 1.8 1.4 2.1 3.1 2.2h6.2c1.1 0 2-.4 2-1.5v-.3c-.1-1.9-1.3-3.4-3.1-3.8zm-6.3 3.5c0-1.7 0-2.6 0-2.5 0-.3.2-.5.5-.4l5.5 1.2c.8.2 1.4.9 1.5 1.7-.2.1-7.4.1-7.5 0z"></path><path d="m51.3 41-5.5 1.2c-1.8.4-3 1.9-3 3.7 0 .1-.2 1.4 1.2 1.7.7.2 5.2.1 7.1.1 1.7 0 3-.4 3-2.2v-2.3c.1-1.4-1.3-2.5-2.8-2.2zm.9 4.7c-.3.1-7.3.1-7.4.1.1-.8.6-1.5 1.4-1.7l5.5-1.2c.3-.1.5.1.5.4z"></path><path d="m38.7 46.8h-13.4c-.5 0-1 .4-1 1s.4 1 1 1h13.4c.5 0 1-.4 1-1s-.4-1-1-1z"></path><path d="m38.7 50.9h-13.4c-.5 0-1 .4-1 1s.4 1 1 1h13.4c.5 0 1-.4 1-1s-.4-1-1-1z"></path><path d="m60 30.2h-1.8c-1.7 0-3.3.8-4.2 2.3l-1.8-3.6c5.2-2.4 8.8-7.6 8.8-13.7-.1-8.4-6.9-15.2-15.2-15.2s-15.1 6.8-15.1 15.1c0 1.8.3 3.5.9 5.1h-12.1c-2.3 0-4.4 1.4-5.2 3.5l-4.2 8.7c-.9-1.4-2.5-2.3-4.2-2.3h-1.9c-1.5 0-2.8 1.3-2.8 2.8v1.2c0 1.5 1.2 2.8 2.8 2.8h2.9c-1.2 1.5-1.8 3.4-1.8 5.4v6.4c0 2.4.9 4.8 2.6 6.8v4.8c0 2.1 1.7 3.7 3.7 3.7h4c2.1 0 3.7-1.7 3.7-3.7v-1.9h25.7v1.9c0 2.1 1.7 3.7 3.7 3.7h4c2.1 0 3.7-1.7 3.7-3.7v-4.8c1.7-1.9 2.6-4.2 2.6-6.7v-6.4c0-1.2-.3-2.5-.8-3.6-.3-.6-.6-1.2-1.1-1.8h3.1c1.5 0 2.8-1.2 2.8-2.8v-1.2c-.1-1.6-1.3-2.8-2.8-2.8zm-14.2-28.2c7.3 0 13.2 5.9 13.2 13.1s-5.9 13.1-13.1 13.1-13.1-5.9-13.1-13.1 5.8-13.1 13-13.1zm-29.7 22.5c.5-1.4 1.9-2.3 3.4-2.3h13c2.5 4.8 7.5 8 13.3 8 1.6 0 3.1-.2 4.5-.7.1.1 2.5 5.2 2.9 5.9h-42.5c.4-.6-.2.8 5.4-10.9zm-12.9 9.6v-1.2c0-.5.4-.9.8-.9h1.8c2.2 0 3 2 3.2 2.3-.1.2-.3.4-.4.6h-4.6c-.4 0-.8-.3-.8-.8zm14 26.1c0 1-.8 1.8-1.8 1.8h-4c-1 0-1.8-.8-1.8-1.8v-3.2c1.3.8 2.8 1.2 4.3 1.2h3.3zm35.4 1.8h-4c-1 0-1.8-.8-1.8-1.8v-1.9h3.3c1.5 0 3-.4 4.3-1.2v3.2c0 .9-.8 1.7-1.8 1.7zm4.4-13.4c0 4-2.9 7.7-6.9 7.7-12.3 0-22.6 0-36.2 0-4 0-6.9-3.8-6.9-7.7v-6.4c0-1.8.7-3.6 2.1-4.9h45.9c.6.6 1.1 1.3 1.5 2.1.4.9.6 1.9.6 2.8v6.4zm3.8-14.5c0 .5-.4.8-.8.8h-4.6c-.2-.2-.3-.4-.4-.6.3-.3 1-2.3 3.2-2.3h1.8c.5 0 .8.4.8.8z"></path><path d="m42.8 19.1c0-.5-.4-1-1-1s-1 .4-1 1c0 2.4 1.7 4.4 4 4.8v1.3c0 .5.4 1 1 1s1-.4 1-1v-1.3c2.3-.5 4-2.4 4-4.8s-1.7-4.4-4-4.8v-6c1.2.4 2 1.5 2 2.8 0 .5.4 1 1 1s1-.4 1-1c0-2.4-1.7-4.4-4-4.8v-1.3c0-.5-.4-1-1-1s-1 .4-1 1v1.3c-2.3.5-4 2.4-4 4.8s1.7 4.4 4 4.8v5.9c-1.1-.3-2-1.4-2-2.7zm6 0c0 1.3-.9 2.4-2 2.8v-5.6c1.2.3 2 1.5 2 2.8zm-6-8c0-1.3.9-2.4 2-2.8v5.7c-1.1-.5-2-1.6-2-2.9z"></path></g></svg>