<!-- icon666.com - MILLIONS vector ICONS FREE --><svg id="Layer_1" enable-background="new 0 0 56 56" viewBox="0 0 56 56" xmlns="http://www.w3.org/2000/svg" fill="#ffffff"><g><path d="m9.8 29h22c.6 0 1-.4 1-1s-.4-1-1-1h-22c-.6 0-1 .4-1 1s.5 1 1 1z"></path><path d="m9.8 17.5h11.2c.6 0 1-.4 1-1s-.4-1-1-1h-11.2c-.6 0-1 .4-1 1s.5 1 1 1z"></path><path d="m9.8 34.7h17c.6 0 1-.4 1-1s-.4-1-1-1h-17c-.6 0-1 .4-1 1s.5 1 1 1z"></path><path d="m9.8 23.3h22c.6 0 1-.4 1-1s-.4-1-1-1h-22c-.6 0-1 .4-1 1s.5 1 1 1z"></path><path d="m9.8 40.5h14.9c.6 0 1-.4 1-1s-.4-1-1-1h-14.9c-.6 0-1 .4-1 1s.5 1 1 1z"></path><path d="m31.8 44.2h-22c-.6 0-1 .4-1 1s.4 1 1 1h22c.6 0 1-.4 1-1s-.4-1-1-1z"></path><path d="m9.8 11.8h11.2c.6 0 1-.4 1-1s-.4-1-1-1h-11.2c-.6 0-1 .4-1 1s.5 1 1 1z"></path><path d="m52.3 19.3-2.4-2.4c-1-1-2.5-1-3.5 0-4 4-2.9 2.9-7.7 7.7v-8.8c0-.2-.1-.5-.3-.7l-11.7-11.8c-.2-.2-.5-.3-.7-.3h-20c-1.7 0-3 1.3-3 3v44c0 1.7 1.3 3 3 3h29.8c1.7 0 3-1.3 3-3v-13.7l13.6-13.6c.9-.9.9-2.5-.1-3.4zm-19.6 15 2.3 2.3-3.5 1.3zm4.3.9-.3.3-3.1-3.1 10.3-10.3 3.1 3.1zm-1.7-20.4h-7.3c-.6 0-1-.4-1-1v-7.4zm.4 36.2h-29.7c-.6 0-1-.4-1-1v-44c0-.6.4-1 1-1h19v8.8c0 1.7 1.3 3 3 3h8.8v9.8l-5.2 5.2c-.1.1-.2.2-.2.4l-2.6 7c-.1.4 0 .8.2 1 .3.3.7.4 1 .2l6.7-2.4v12c0 .6-.4 1-1 1zm15.2-29.6-2.5 2.5-3.1-3.1 2.5-2.5c.2-.2.5-.2.7 0l2.4 2.4c.2.2.2.5 0 .7z"></path></g></svg>