<!-- icon666.com - MILLIONS vector ICONS FREE --><svg version="1.1" id="Layer_1" xmlns="http://www.w3.org/2000/svg" xmlns:xlink="http://www.w3.org/1999/xlink" x="0px" y="0px" viewBox="0 0 512 512" style="enable-background:new 0 0 512 512;" xml:space="preserve"><g><g><path d="M449.743,311.349L163.837,89.131c-3.075-2.39-7.242-2.82-10.742-1.109c-3.498,1.711-5.717,5.266-5.717,9.161V459.41 c0,4.355,2.766,8.23,6.884,9.645c4.121,1.417,8.683,0.059,11.36-3.376l71.448-91.687l64.819,132.296 c1.19,2.429,3.296,4.286,5.855,5.162c1.073,0.367,2.19,0.55,3.302,0.55c1.542,0,3.078-0.349,4.489-1.04l71.972-35.263 c5.058-2.478,7.15-8.589,4.671-13.647l-64.811-132.282l116.13-0.168c4.355-0.006,8.226-2.777,9.635-6.898 C454.544,318.582,453.182,314.021,449.743,311.349z M311.011,309.395c-3.518,0.005-6.784,1.822-8.644,4.808 c-1.859,2.986-2.049,6.72-0.501,9.879l67.508,137.785l-53.654,26.287l-67.508-137.785c-1.547-3.158-4.611-5.295-8.108-5.657 c-0.352-0.036-0.703-0.054-1.053-0.054c-3.123,0-6.099,1.435-8.043,3.93l-63.231,81.142V118.028l246.02,191.218L311.011,309.395z"></path></g></g><g><g><path d="M187.131,292.651c-5.633,0-10.199,4.566-10.199,10.199v69.675c0,5.633,4.566,10.199,10.199,10.199 c5.633,0,10.199-4.567,10.199-10.199V302.85C197.33,297.217,192.764,292.651,187.131,292.651z"></path></g></g><g><g><path d="M187.131,254.875c-5.633,0-10.199,4.566-10.199,10.199v5.876c0,5.633,4.566,10.199,10.199,10.199 c5.633,0,10.199-4.566,10.199-10.199v-5.876C197.33,259.441,192.764,254.875,187.131,254.875z"></path></g></g><g><g><path d="M157.851,0c-5.633,0-10.199,4.566-10.199,10.199v45.219c0,5.633,4.566,10.199,10.199,10.199 c5.633,0,10.199-4.566,10.199-10.199V10.199C168.05,4.566,163.484,0,157.851,0z"></path></g></g><g><g><path d="M228.235,29.151c-3.984-3.983-10.442-3.983-14.425,0l-31.976,31.976c-3.983,3.984-3.983,10.442,0,14.425 c1.991,1.992,4.602,2.987,7.212,2.987s5.221-0.995,7.213-2.987l31.976-31.976C232.218,39.592,232.219,33.134,228.235,29.151z"></path></g></g><g><g><path d="M133.87,123.517c-3.984-3.983-10.442-3.983-14.425,0l-31.976,31.976c-3.983,3.984-3.983,10.442,0,14.425 c1.991,1.992,4.602,2.987,7.212,2.987c2.61,0,5.22-0.995,7.213-2.987l31.976-31.976C137.852,133.958,137.853,127.5,133.87,123.517 z"></path></g></g><g><g><path d="M113.734,89.336H68.515c-5.633,0-10.199,4.566-10.199,10.199c0,5.633,4.566,10.199,10.199,10.199h45.219 c5.633,0,10.199-4.566,10.199-10.199C123.934,93.902,119.367,89.336,113.734,89.336z"></path></g></g><g><g><path d="M133.869,61.128l-31.976-31.976c-3.984-3.983-10.442-3.984-14.425,0c-3.983,3.984-3.983,10.442,0,14.425l31.976,31.974 c1.991,1.992,4.602,2.987,7.212,2.987s5.221-0.995,7.213-2.986C137.851,71.569,137.851,65.111,133.869,61.128z"></path></g></g></svg>