<!-- icon666.com - MILLIONS vector ICONS FREE --><svg viewBox="0 -3 512 512" xmlns="http://www.w3.org/2000/svg" fill="#ffffff"><path d="m266.175781 429.953125c-2.992187-.003906-5.96875-.421875-8.84375-1.25l-57.597656-16.425781c-5.453125-1.777344-8.523437-7.550782-6.953125-13.066406 1.574219-5.515626 7.226562-8.800782 12.796875-7.4375l57.601563 16.429687c1.78125.511719 3.667968.53125 5.460937.0625 3.035156-.632813 5.609375-2.640625 6.964844-5.429687l3.050781-6.109376c1.367188-2.648437 1.542969-5.753906.480469-8.535156-1.066407-2.855468-3.289063-5.128906-6.125-6.25l-68.5625-27.402344c-2.644531-1.042968-5.414063-1.738281-8.234375-2.070312-5.558594-.640625-11.183594.1875-16.320313 2.398438l-58.378906 24.972656c-5.421875 2.308594-11.6875-.210938-13.996094-5.632813-2.308593-5.417969.210938-11.683593 5.632813-13.996093l58.324218-24.949219c8.554688-3.695313 17.933594-5.070313 27.191407-3.988281 4.683593.542968 9.277343 1.699218 13.664062 3.433593l68.628907 27.4375c8.375 3.375 14.957031 10.101563 18.152343 18.546875 3.128907 8.351563 2.632813 17.632813-1.375 25.601563l-2.964843 5.941406c-4.070313 8.429687-11.734376 14.570313-20.851563 16.703125-2.527344.679688-5.132813 1.023438-7.746094 1.015625zm0 0"></path><path d="m260.320312 505.375c-6.8125.003906-13.605468-.710938-20.265624-2.132812l-124.90625-26.773438c-5.761719-1.230469-9.4375-6.898438-8.203126-12.660156 1.230469-5.761719 6.898438-9.433594 12.660157-8.203125l124.90625 26.773437c13.949219 2.988282 28.460937 1.953125 41.84375-2.988281l113.453125-42.164063c5.117187-1.914062 7.964844-7.382812 6.589844-12.671874l-2.195313-8.300782c-1.285156-5.484375-6.636719-9.007812-12.183594-8.019531l-118.695312 20.90625c-5.804688 1.023437-11.335938-2.851563-12.359375-8.65625-1.023438-5.800781 2.855468-11.335937 8.65625-12.355469l118.710937-20.910156c16.507813-2.992188 32.5 7.371094 36.511719 23.660156l2.207031 8.320313c4.082031 15.859375-4.445312 32.246093-19.777343 38.003906l-113.535157 42.175781c-10.695312 3.972656-22.011719 6-33.417969 5.996094zm0 0"></path><path d="m117.332031 487.359375h-42.664062c-5.890625 0-10.667969-4.777344-10.667969-10.667969s4.777344-10.664062 10.667969-10.664062h32v-106.667969h-32c-5.890625 0-10.667969-4.777344-10.667969-10.667969s4.777344-10.664062 10.667969-10.664062h42.664062c5.890625 0 10.667969 4.773437 10.667969 10.664062v128c0 5.890625-4.777344 10.667969-10.667969 10.667969zm0 0"></path><path d="m74.667969 498.027344h-64c-5.890625 0-10.667969-4.777344-10.667969-10.667969v-149.332031c0-5.890625 4.777344-10.667969 10.667969-10.667969h64c5.890625 0 10.664062 4.777344 10.664062 10.667969v149.332031c0 5.890625-4.773437 10.667969-10.664062 10.667969zm-53.335938-21.335938h42.667969v-128h-42.667969zm0 0"></path><path d="m74.667969 391.359375h-21.335938c-5.890625 0-10.664062-4.777344-10.664062-10.667969s4.773437-10.664062 10.664062-10.664062h21.335938c5.890625 0 10.664062 4.773437 10.664062 10.664062s-4.773437 10.667969-10.664062 10.667969zm0 0"></path><path d="m319.445312 174.472656c-2.042968.003906-4.082031-.117187-6.113281-.363281-4.683593-.542969-9.277343-1.695313-13.664062-3.433594l-68.660157-27.445312c-8.34375-3.316407-14.90625-9.988281-18.089843-18.382813-3.1875-8.390625-2.699219-17.738281 1.34375-25.753906l2.964843-5.941406c6.898438-13.835938 22.699219-20.761719 37.546876-16.460938l57.484374 16.40625c5.449219 1.777344 8.523438 7.550782 6.949219 13.066406-1.574219 5.515626-7.226562 8.800782-12.796875 7.433594l-57.597656-16.425781c-1.921875-.550781-3.957031-.550781-5.878906 0-2.902344.730469-5.320313 2.730469-6.582032 5.441406l-3.019531 6.035157c-1.367187 2.648437-1.539062 5.75-.480469 8.535156 1.066407 2.855468 3.292969 5.125 6.125 6.25l68.542969 27.390625c2.648438 1.066406 5.421875 1.785156 8.257813 2.136719 5.554687.652343 11.1875-.175782 16.320312-2.402344l58.367188-24.960938c5.390625-2.21875 11.566406.300782 13.867187 5.660156 2.296875 5.359376-.136719 11.574219-5.460937 13.945313l-58.371094 24.929687c-6.648438 2.859376-13.8125 4.339844-21.054688 4.339844zm0 0"></path><path d="m117.996094 118.625c-14.613282.007812-27.347656-9.960938-30.839844-24.152344l-2.207031-8.320312c-4.082031-15.859375 4.445312-32.246094 19.777343-38.003906l113.535157-42.144532c17.183593-6.367187 35.824219-7.703125 53.738281-3.851562l124.90625 26.773437c5.761719 1.234375 9.433594 6.902344 8.203125 12.664063-1.230469 5.761718-6.898437 9.433594-12.660156 8.203125l-124.90625-26.773438c-13.949219-3.003906-28.464844-1.96875-41.847657 2.984375l-113.503906 42.15625c-5.101562 1.910156-7.945312 7.359375-6.589844 12.640625l2.195313 8.296875c1.285156 5.484375 6.636719 9.007813 12.183594 8.023438l118.175781-20.800782c5.789062-1.039062 11.359375 2.703126 12.585938 8.457032.578124 2.714844.054687 5.542968-1.457032 7.871094-1.515625 2.324218-3.890625 3.949218-6.609375 4.511718l-.542969.121094-118.464843 20.851562c-1.871094.324219-3.769531.488282-5.671875.492188zm0 0"></path><path d="m437.332031 167.359375h-42.664062c-5.890625 0-10.667969-4.777344-10.667969-10.667969v-128c0-5.890625 4.777344-10.664062 10.667969-10.664062h42.664062c5.890625 0 10.667969 4.773437 10.667969 10.664062s-4.777344 10.667969-10.667969 10.667969h-32v106.667969h32c5.890625 0 10.667969 4.773437 10.667969 10.664062s-4.777344 10.667969-10.667969 10.667969zm0 0"></path><path d="m501.332031 178.027344h-64c-5.890625 0-10.664062-4.777344-10.664062-10.667969v-149.332031c0-5.890625 4.773437-10.667969 10.664062-10.667969h64c5.890625 0 10.667969 4.777344 10.667969 10.667969v149.332031c0 5.890625-4.777344 10.667969-10.667969 10.667969zm-53.332031-21.335938h42.667969v-128h-42.667969zm0 0"></path><path d="m458.667969 135.359375h-21.335938c-5.890625 0-10.664062-4.777344-10.664062-10.667969s4.773437-10.664062 10.664062-10.664062h21.335938c5.890625 0 10.664062 4.773437 10.664062 10.664062s-4.773437 10.667969-10.664062 10.667969zm0 0"></path><path d="m141.652344 359.359375c-3.140625 0-6.121094-1.386719-8.148438-3.785156-30.40625-36.207031-43.246094-84.003907-35.070312-130.570313 8.175781-46.570312 36.527344-87.136718 77.449218-110.816406 3.304688-2.101562 7.5-2.222656 10.921876-.3125 3.421874 1.90625 5.519531 5.539062 5.464843 9.457031-.050781 3.917969-2.25 7.492188-5.71875 9.308594-35.464843 20.515625-60.039062 55.664063-67.128906 96.015625-7.09375 40.351562 4.019531 81.773438 30.359375 113.15625 2.675781 3.167969 3.269531 7.601562 1.527344 11.363281-1.742188 3.761719-5.507813 6.175781-9.65625 6.183594zm0 0"></path><path d="m330.667969 392.746094c-4.820313-.007813-9.035157-3.25-10.285157-7.90625-1.25-4.652344.78125-9.570313 4.949219-11.988282 35.535157-20.507812 60.160157-55.703124 67.253907-96.109374 7.097656-40.410157-4.066407-81.886719-30.484376-113.277344-2.535156-2.902344-3.308593-6.945313-2.019531-10.578125 1.285157-3.632813 4.433594-6.285157 8.226563-6.945313 3.796875-.660156 7.65625.777344 10.089844 3.765625 30.488281 36.214844 43.371093 84.070313 35.1875 130.695313-8.183594 46.625-36.589844 87.234375-77.585938 110.902344-1.621094.941406-3.460938 1.4375-5.332031 1.441406zm0 0"></path><path d="m256 263.359375c-17.671875 0-32-14.328125-32-32s14.328125-32 32-32 32 14.328125 32 32c0 5.890625-4.777344 10.667969-10.667969 10.667969s-10.664062-4.777344-10.664062-10.667969-4.777344-10.667969-10.667969-10.667969-10.667969 4.777344-10.667969 10.667969 4.777344 10.667969 10.667969 10.667969 10.667969 4.773437 10.667969 10.664062-4.777344 10.667969-10.667969 10.667969zm0 0"></path><path d="m256 306.027344c-17.671875 0-32-14.328125-32-32 0-5.890625 4.777344-10.667969 10.667969-10.667969s10.664062 4.777344 10.664062 10.667969 4.777344 10.664062 10.667969 10.664062 10.667969-4.773437 10.667969-10.664062-4.777344-10.667969-10.667969-10.667969-10.667969-4.777344-10.667969-10.667969 4.777344-10.664062 10.667969-10.664062c17.671875 0 32 14.324218 32 32 0 17.671875-14.328125 32-32 32zm0 0"></path><path d="m256 220.691406c-5.890625 0-10.667969-4.773437-10.667969-10.664062v-10.667969c0-5.890625 4.777344-10.667969 10.667969-10.667969s10.667969 4.777344 10.667969 10.667969v10.667969c0 5.890625-4.777344 10.664062-10.667969 10.664062zm0 0"></path><path d="m256 316.691406c-5.890625 0-10.667969-4.773437-10.667969-10.664062v-10.667969c0-5.890625 4.777344-10.667969 10.667969-10.667969s10.667969 4.777344 10.667969 10.667969v10.667969c0 5.890625-4.777344 10.664062-10.667969 10.664062zm0 0"></path><path d="m405.332031 263.359375h-10.664062c-5.890625 0-10.667969-4.777344-10.667969-10.667969s4.777344-10.664062 10.667969-10.664062h10.664062c5.890625 0 10.667969 4.773437 10.667969 10.664062s-4.777344 10.667969-10.667969 10.667969zm0 0"></path><path d="m117.332031 263.359375h-10.664062c-5.890625 0-10.667969-4.777344-10.667969-10.667969s4.777344-10.664062 10.667969-10.664062h10.664062c5.890625 0 10.667969 4.773437 10.667969 10.664062s-4.777344 10.667969-10.667969 10.667969zm0 0"></path><path d="m256 370.027344c-3.957031 0-7.785156-.226563-11.625-.578125-5.867188-.53125-10.195312-5.714844-9.664062-11.582031.527343-5.867188 5.714843-10.195313 11.582031-9.664063 3.199219.285156 6.398437.488281 9.707031.488281 42.433594.007813 79.839844-27.84375 91.992188-68.5 12.15625-40.65625-3.824219-84.46875-39.300782-107.753906-4.921875-3.242188-6.285156-9.859375-3.042968-14.78125 3.238281-4.921875 9.855468-6.285156 14.777343-3.042969 43.351563 28.464844 62.875 82.011719 48.011719 131.699219-14.859375 49.6875-60.574219 83.726562-112.4375 83.714844zm0 0"></path><path d="m197.429688 352.53125c-2.082032.003906-4.121094-.605469-5.855469-1.757812-43.351563-28.464844-62.875-82.015626-48.011719-131.703126 14.859375-49.683593 60.574219-83.722656 112.4375-83.710937 4.636719-.027344 9.269531.25 13.867188.832031 5.84375.761719 9.964843 6.125 9.195312 11.96875-.835938 5.804688-6.144531 9.882813-11.96875 9.195313-3.679688-.46875-7.386719-.6875-11.09375-.664063-42.433594-.003906-79.839844 27.847656-91.992188 68.503906-12.15625 40.65625 3.824219 84.46875 39.300782 107.753907 3.941406 2.589843 5.71875 7.464843 4.363281 11.984375-1.359375 4.519531-5.523437 7.609375-10.242187 7.597656zm0 0"></path></svg>